<?xml version="1.0" standalone="no"?>
<!DOCTYPE svg PUBLIC "-//W3C//DTD SVG 20010904//EN"
 "http://www.w3.org/TR/2001/REC-SVG-20010904/DTD/svg10.dtd">
<svg version="1.0" xmlns="http://www.w3.org/2000/svg"
 width="1024.000000pt" height="1024.000000pt" viewBox="0 0 1024.000000 1024.000000"
 preserveAspectRatio="xMidYMid meet">
<metadata>
Created by potrace 1.14, written by Peter Selinger 2001-2017
</metadata>
<g transform="translate(0.000000,1024.000000) scale(0.100000,-0.100000)"
fill="#000000" stroke="none">
<path d="M10202 5120 c0 -5027 0 -5120 19 -5120 19 0 19 93 19 5120 0 5039 0
5120 -19 5120 -19 0 -19 -81 -19 -5120z"/>
<path d="M4926 8323 c-22 -141 -96 -651 -96 -663 0 -6 56 -10 140 -10 107 0
138 3 135 13 -2 6 -25 172 -50 367 -25 195 -48 365 -51 378 -3 17 -11 22 -33
22 l-28 0 -17 -107z"/>
<path d="M3146 7831 c-16 -18 -11 -28 106 -217 68 -108 129 -199 135 -201 7
-3 13 9 15 28 2 27 9 34 37 44 l34 11 -143 177 c-78 97 -147 177 -154 177 -7
0 -21 -8 -30 -19z"/>
<path d="M4645 7783 c-248 -21 -452 -77 -698 -193 l-68 -33 42 -24 c40 -22 72
-52 88 -81 6 -10 30 -4 107 26 180 72 335 111 502 128 52 5 75 11 81 23 7 13
31 133 31 154 0 7 -6 7 -85 0z"/>
<path d="M6635 7449 c-104 -99 -215 -204 -245 -235 l-55 -55 55 2 c62 2 93 -5
131 -32 l27 -19 44 68 c24 37 96 144 161 239 64 94 117 175 117 179 0 7 -32
34 -40 33 -3 0 -90 -81 -195 -180z"/>
<path d="M3685 7514 c-70 -10 -154 -26 -207 -41 l-58 -16 0 -48 c0 -140 59
-366 113 -433 l24 -29 13 47 c9 34 21 51 41 62 16 8 29 18 29 23 0 16 -29 32
-52 29 -20 -3 -23 2 -26 31 -5 52 5 78 32 83 31 6 39 1 60 -39 23 -46 36 -41
36 15 0 66 36 102 101 102 64 0 158 19 186 37 12 8 23 24 23 35 0 31 -56 94
-103 117 -42 20 -152 33 -212 25z m272 -121 c3 -7 -23 -17 -66 -27 -131 -30
-161 -15 -46 23 65 21 106 23 112 4z"/>
<path d="M4986 7461 c-8 -12 -24 -288 -36 -621 -6 -157 -17 -440 -25 -630 -8
-190 -21 -532 -31 -760 -9 -228 -20 -419 -24 -423 -7 -8 -175 -53 -367 -99
l-92 -22 -3 -74 c-2 -40 -1 -76 1 -78 2 -2 269 -4 593 -4 l590 0 -6 28 c-2 15
-8 48 -11 75 -4 28 -11 47 -19 47 -7 0 -96 23 -197 50 -101 28 -200 55 -221
60 l-36 10 -6 73 c-3 39 -13 302 -21 582 -21 697 -53 1591 -61 1698 -6 81 -15
110 -28 88z"/>
<path d="M3346 7251 l-59 -59 22 -34 c48 -76 45 -74 92 -44 24 16 39 33 36 41
-3 7 -9 45 -13 84 -3 39 -10 71 -13 71 -4 0 -33 -27 -65 -59z"/>
<path d="M6144 7139 c-21 -34 39 -111 127 -165 63 -38 89 -74 89 -124 0 -16 5
-30 10 -30 6 0 10 5 10 10 0 6 7 27 15 47 14 32 17 35 30 22 8 -8 17 -28 21
-45 5 -27 1 -37 -35 -72 -47 -46 -53 -72 -17 -72 13 0 26 -5 28 -12 2 -6 14 4
26 23 12 19 22 32 22 29 11 -138 25 -170 130 -290 200 -231 313 -322 539 -434
40 -20 92 -49 115 -65 85 -59 206 -106 206 -81 0 4 -15 19 -33 33 -23 17 -38
41 -50 79 -19 62 -23 138 -6 138 14 0 316 188 325 202 8 13 -33 4 -156 -34
-52 -16 -121 -32 -152 -35 -32 -3 -58 -8 -58 -10 0 -2 9 -21 20 -43 21 -41 25
-60 13 -60 -8 0 -73 113 -73 127 0 4 33 8 73 9 42 1 95 9 127 20 48 16 56 23
60 49 4 24 11 31 33 33 22 3 27 -1 27 -17 0 -12 3 -21 7 -21 22 0 193 63 202
74 8 10 7 19 -6 34 -18 20 -19 19 -163 -29 -80 -26 -158 -48 -174 -49 -52 0
-111 38 -212 138 -134 133 -161 145 -334 152 -121 5 -139 8 -172 30 -48 33
-78 81 -117 188 -17 49 -46 113 -64 142 -60 100 -110 118 -258 92 -95 -16 -96
-16 -132 6 -22 13 -39 17 -43 11z"/>
<path d="M3048 7022 c-92 -97 -185 -212 -251 -312 -41 -64 -197 -362 -197
-378 0 -3 15 8 33 25 17 17 79 62 137 101 120 80 122 82 217 217 39 55 111
145 160 200 l89 100 -41 60 c-24 33 -49 61 -57 63 -8 2 -49 -33 -90 -76z"/>
<path d="M3729 6983 c-27 -72 31 -123 116 -102 40 10 75 38 75 61 0 5 -22 8
-50 8 -27 0 -50 4 -50 9 0 5 -18 18 -40 30 l-41 21 -10 -27z"/>
<path d="M3313 6723 l-33 -4 18 -32 c24 -45 23 -264 -2 -401 -20 -111 -40
-171 -31 -96 16 143 17 338 2 419 -9 46 -19 86 -22 89 -3 3 -27 -4 -53 -17
-173 -83 -648 -399 -629 -418 3 -2 38 2 78 10 41 8 117 18 169 22 85 6 342 45
396 61 19 5 20 3 13 -53 -4 -32 -10 -191 -14 -353 -3 -162 -8 -308 -11 -325
-5 -31 -6 -32 -381 -325 -78 -61 -156 -125 -173 -142 -18 -18 -93 -61 -173
-98 -350 -166 -456 -220 -466 -239 -12 -21 -4 -131 8 -131 16 0 720 239 751
255 39 20 236 170 400 304 140 114 222 198 259 263 33 58 43 41 12 -21 -31
-60 -97 -140 -185 -224 l-81 -78 100 5 c111 7 313 46 511 100 72 19 138 36
145 38 16 3 17 -11 54 -427 14 -159 28 -304 31 -321 l6 -30 94 15 c52 9 95 21
96 26 0 6 -36 15 -80 21 -117 17 -118 20 -9 27 55 3 100 7 102 9 1 2 14 138
29 303 31 351 42 587 32 668 -14 108 -75 143 -218 126 -35 -4 -85 -17 -111
-29 -27 -12 -51 -20 -53 -17 -3 3 9 87 25 188 63 383 62 577 -5 780 -12 39
-20 48 -46 53 -33 6 -501 6 -555 -1z m137 -1058 c30 -9 100 -21 155 -27 86
-11 95 -13 65 -20 -19 -5 -71 -6 -116 -2 -63 4 -96 13 -155 40 -79 38 -62 41
51 9z"/>
<path d="M3940 6717 c0 -3 6 -20 14 -38 8 -19 28 -92 46 -164 34 -143 78 -241
162 -361 28 -41 66 -88 85 -105 32 -27 37 -29 56 -16 42 27 137 173 207 317
39 80 78 161 88 180 10 19 16 43 14 52 -4 19 -82 68 -109 68 -12 0 -37 -31
-76 -98 -69 -116 -138 -214 -153 -219 -6 -2 -31 29 -54 69 -63 106 -116 175
-184 241 -53 52 -96 85 -96 74z"/>
<path d="M1916 6485 c-4 -15 -6 -28 -4 -30 2 -1 108 -66 236 -144 128 -78 289
-177 358 -221 69 -44 129 -80 133 -80 9 0 71 210 71 239 0 17 -5 20 -22 17
-66 -14 -130 -26 -139 -26 -6 0 -9 14 -7 31 4 37 29 25 -317 144 -308 107
-300 105 -309 70z"/>
<path d="M6370 6459 c-47 -10 -99 -16 -116 -13 l-31 6 -18 -84 c-10 -46 -21
-137 -25 -203 -5 -99 -7 -113 -14 -81 -12 54 -1 188 23 276 11 41 19 76 17 77
-1 2 -29 -69 -60 -158 -71 -198 -73 -225 -20 -394 95 -307 100 -336 64 -390
-59 -89 9 -206 207 -357 35 -26 73 -65 87 -86 51 -81 147 -148 376 -262 69
-34 169 -92 224 -127 95 -63 108 -68 345 -140 135 -40 351 -105 479 -144 128
-39 238 -69 246 -66 17 7 29 93 16 117 -6 10 -20 22 -32 26 -13 3 -102 41
-198 82 -96 42 -281 119 -411 171 l-236 96 -124 138 c-68 76 -141 159 -162
185 -68 83 -128 139 -176 166 -86 46 -204 51 -282 11 -49 -26 -46 -10 4 19 87
52 205 42 296 -24 42 -31 65 -34 42 -7 -6 8 -65 51 -130 96 -187 127 -199 148
-181 323 6 62 15 138 20 168 5 30 14 97 20 148 12 104 11 107 -51 186 -40 50
-53 84 -64 173 -4 29 -12 56 -18 60 -12 7 -3 -169 13 -260 18 -94 6 -99 -23
-9 -29 90 -34 165 -16 238 7 26 8 49 3 53 -5 5 -47 0 -94 -10z m164 -658 c3
-4 -28 -11 -68 -14 -63 -6 -171 -34 -240 -62 -16 -7 -17 -6 -7 13 12 22 55 49
101 63 35 10 208 11 214 0z"/>
<path d="M2880 6283 c0 -20 237 -392 275 -432 10 -11 14 21 17 170 3 124 1
188 -6 196 -18 20 -286 81 -286 66z"/>
<path d="M6910 6101 c0 -5 7 -15 17 -22 9 -8 35 -39 57 -70 25 -35 47 -54 56
-52 31 9 90 36 90 42 0 8 -196 111 -210 111 -6 0 -10 -4 -10 -9z"/>
<path d="M7131 5920 l-64 -30 19 -23 c10 -12 30 -34 45 -49 l26 -28 55 40 c68
48 75 64 43 96 -31 31 -47 30 -124 -6z"/>
<path d="M2160 5853 c-250 -16 -274 -21 -278 -50 -4 -26 -5 -25 213 -53 88
-12 189 -25 225 -30 36 -5 77 -10 92 -10 29 0 31 5 43 108 l7 52 -49 -2 c-26
0 -140 -7 -253 -15z"/>
<path d="M7386 5790 c4 -36 7 -66 8 -66 5 -6 481 47 488 54 6 6 8 18 6 28 -3
16 -20 21 -128 32 -69 7 -182 13 -253 15 l-127 2 6 -65z"/>
<path d="M2445 5513 c-8 -95 -1 -317 11 -393 l6 -36 75 35 74 36 -5 44 c-3 24
-6 117 -6 207 l0 163 -57 16 c-32 9 -65 18 -75 21 -14 4 -17 -9 -23 -93z"/>
<path d="M6095 5423 c-39 -21 -108 -39 -225 -59 -193 -32 -367 -84 -400 -119
-28 -30 -35 -8 130 -355 132 -276 207 -450 250 -575 l27 -80 49 2 49 1 -32
-27 c-61 -51 -184 -108 -246 -114 -66 -6 -110 -30 -105 -55 3 -14 18 -18 93
-20 98 -4 334 15 356 28 10 7 8 23 -11 84 -13 41 -29 77 -37 80 -10 4 -11 10
-2 24 16 25 -74 396 -151 627 -33 98 -57 181 -54 186 3 5 155 9 337 9 297 1
329 2 299 15 -61 26 -151 97 -191 149 -53 70 -71 108 -78 167 -6 53 -13 57
-58 32z"/>
<path d="M7076 5278 c-2 -7 -8 -46 -13 -87 l-9 -74 60 -68 c33 -38 63 -65 67
-61 6 6 39 248 39 286 0 13 -12 16 -70 16 -48 0 -72 -4 -74 -12z"/>
<path d="M5862 5023 c-36 -4 -43 -7 -37 -21 4 -9 15 -39 26 -67 l19 -50 222
-79 c123 -43 362 -130 532 -192 171 -63 311 -113 312 -111 1 1 22 36 48 77 36
59 43 77 33 86 -6 7 -73 45 -147 84 -164 89 -290 173 -350 234 l-44 46 -286
-2 c-157 -1 -305 -3 -328 -5z"/>
<path d="M1807 4764 c-42 -14 -89 -35 -104 -49 l-28 -23 1 -154 c1 -230 25
-308 99 -321 48 -9 60 4 41 41 -10 20 -19 71 -23 137 -6 103 -6 105 15 105 12
0 22 5 22 10 0 6 -8 10 -17 8 -14 -2 -17 3 -15 26 2 16 10 43 17 60 14 29 14
30 14 6 -2 -44 1 -49 31 -65 35 -18 133 -20 148 -2 7 8 6 19 -3 37 -8 14 -15
39 -15 55 0 31 -34 115 -45 115 -4 0 -4 -24 0 -52 9 -68 -8 -55 -38 30 l-22
60 -78 -24z"/>
<path d="M2280 4749 c-40 -25 -201 -152 -219 -173 -9 -11 2 -31 55 -102 36
-49 67 -90 69 -92 2 -2 43 23 92 55 48 33 123 81 167 108 l79 49 -94 87 c-52
49 -98 88 -104 89 -5 0 -26 -10 -45 -21z"/>
<path d="M4017 4380 c5 -140 4 -163 -14 -216 -22 -63 -21 -115 3 -135 11 -9
88 -12 267 -13 l252 -1 -2 29 c-3 41 -33 67 -84 72 -24 3 -94 15 -156 26 -100
19 -110 23 -93 35 17 12 24 11 49 -2 44 -22 46 -19 7 15 l-35 31 -65 -12 c-67
-11 -115 -7 -61 6 17 4 46 11 66 16 l36 9 7 118 c4 64 9 131 12 147 l5 31 -99
0 -100 -1 5 -155z"/>
<path d="M8195 4401 c-3 -5 -9 -30 -14 -55 -9 -50 -4 -60 42 -71 82 -21 74
-146 -14 -217 -44 -35 -42 -48 7 -48 45 0 87 22 113 59 24 34 81 198 81 234 0
29 -40 58 -123 88 -57 21 -83 24 -92 10z m75 -21 c0 -5 -5 -10 -11 -10 -5 0
-7 5 -4 10 3 6 8 10 11 10 2 0 4 -4 4 -10z"/>
<path d="M2819 4120 c-74 -22 -121 -84 -121 -159 0 -100 70 -171 169 -171 184
0 237 245 69 321 -43 20 -75 22 -117 9z"/>
<path d="M3453 3645 c-86 -20 -145 -50 -203 -104 -73 -69 -95 -124 -95 -241 0
-114 17 -153 95 -223 55 -49 99 -68 317 -136 133 -42 180 -68 184 -106 5 -36
-10 -70 -38 -86 -87 -50 -247 -22 -391 68 -30 19 -57 33 -62 31 -4 -2 -43 -36
-86 -77 l-79 -74 45 -39 c62 -53 208 -124 310 -149 155 -39 345 -11 446 66 43
33 90 105 105 160 6 22 9 78 7 125 -5 101 -25 146 -90 206 -57 53 -120 81
-302 139 -161 51 -196 73 -196 124 0 59 89 101 182 86 67 -12 144 -41 192 -74
25 -17 49 -31 55 -31 14 0 161 169 161 185 0 27 -162 115 -260 140 -89 23
-221 27 -297 10z"/>
<path d="M1540 3646 c0 -7 237 -681 325 -926 43 -118 83 -218 89 -222 14 -9
142 -10 223 -2 l61 7 97 286 c102 297 247 707 284 799 12 29 21 55 21 58 0 2
-62 3 -137 2 l-137 -3 -134 -403 c-73 -221 -137 -400 -141 -397 -6 3 -217 631
-267 793 -2 9 -40 12 -144 12 -77 0 -140 -2 -140 -4z"/>
<path d="M2730 3070 l0 -581 128 3 127 3 0 575 0 575 -127 3 -128 3 0 -581z"/>
<path d="M4170 3643 c-1 -5 -3 -266 -5 -580 l-3 -573 129 0 129 0 2 228 3 227
232 3 233 2 2 -227 3 -228 123 -3 122 -3 0 581 0 580 -125 0 -125 0 0 -225 0
-225 -232 2 -233 3 -3 223 -2 222 -125 0 c-69 0 -125 -3 -125 -7z"/>
<path d="M5610 3413 c-51 -131 -152 -384 -223 -563 -71 -179 -132 -331 -134
-337 -4 -10 26 -13 130 -13 l135 0 42 108 c23 59 47 113 52 120 8 9 65 12 223
12 l212 0 43 -120 42 -120 91 -1 c51 0 108 -2 129 -4 73 -5 91 -66 -210 715
-78 201 -148 382 -157 403 l-15 37 -134 0 -133 0 -93 -237z m260 -175 c18 -46
47 -125 66 -175 l34 -93 -136 0 c-126 0 -136 1 -129 18 4 9 35 88 68 175 34
86 62 157 63 157 1 0 17 -37 34 -82z"/>
<path d="M6520 3075 l0 -575 422 2 423 3 3 123 3 122 -296 0 -295 0 0 450 0
450 -130 0 -129 0 -1 -575z"/>
<path d="M7380 3514 l0 -136 25 6 c14 3 37 9 51 12 l27 7 -23 -41 c-13 -23
-41 -62 -62 -88 -21 -25 -38 -50 -38 -55 0 -17 35 -9 95 22 77 39 102 63 131
124 21 44 24 65 24 168 l0 117 -115 0 -115 0 0 -136z"/>
<path d="M8001 3634 c-112 -30 -210 -104 -253 -193 -33 -65 -33 -217 -1 -277
51 -97 136 -148 343 -209 180 -53 230 -83 230 -136 0 -71 -40 -94 -160 -92
-102 1 -175 25 -267 84 l-63 41 -57 -50 c-96 -83 -108 -99 -92 -118 49 -59
218 -152 329 -180 91 -23 273 -15 352 15 71 28 151 98 186 165 24 46 27 61 27
156 0 94 -3 111 -26 155 -46 91 -126 136 -362 204 -183 53 -224 85 -197 152
16 38 76 68 136 69 60 0 164 -35 224 -75 29 -19 55 -35 59 -35 8 0 151 167
151 177 -1 11 -75 66 -131 97 -107 60 -306 83 -428 50z"/>
<path d="M5277 2330 c-107 -19 -149 -138 -74 -208 12 -11 59 -32 105 -47 45
-15 82 -31 82 -36 0 -54 -75 -66 -153 -24 l-46 24 -22 -30 -21 -30 23 -25 c26
-27 104 -54 158 -54 53 1 117 33 135 69 43 82 6 157 -91 185 -112 33 -143 64
-83 84 24 9 42 7 82 -5 50 -17 51 -17 70 7 10 13 18 30 16 39 -7 37 -104 64
-181 51z"/>
<path d="M1775 2319 c-5 -8 32 -146 78 -294 l35 -110 45 -3 45 -3 42 125 c23
70 45 126 49 126 4 0 23 -55 42 -122 l35 -123 45 -3 44 -3 64 193 c35 106 66
199 69 206 3 10 -7 12 -43 10 l-47 -3 -41 -122 c-23 -68 -44 -123 -48 -123 -3
0 -22 55 -40 123 l-34 122 -46 3 -46 3 -38 -126 c-21 -69 -42 -125 -45 -125
-4 0 -22 53 -40 118 -18 64 -38 123 -43 130 -10 12 -75 14 -82 1z"/>
<path d="M3540 2120 l0 -210 45 0 45 0 1 98 c2 165 0 165 108 24 91 -119 94
-122 132 -122 l39 0 0 210 0 210 -45 0 -45 0 0 -109 c0 -61 -3 -112 -8 -115
-4 -2 -48 47 -97 110 -89 114 -90 114 -132 114 l-43 0 0 -210z"/>
<path d="M4013 2324 c-10 -4 -13 -56 -13 -210 l0 -204 155 0 155 0 0 40 0 40
-110 0 -110 0 0 40 0 40 90 0 c101 0 107 4 96 65 l-7 35 -90 0 -90 0 3 33 3
32 108 3 108 3 -3 42 -3 42 -140 2 c-77 1 -146 -1 -152 -3z"/>
<path d="M4452 2313 c-40 -20 -62 -59 -62 -112 0 -57 37 -97 108 -117 114 -33
144 -68 81 -94 -27 -12 -37 -10 -82 9 -29 12 -57 25 -63 27 -6 3 -21 -4 -34
-14 -72 -58 92 -139 206 -102 52 17 82 46 95 92 8 32 7 46 -8 76 -21 43 -57
65 -137 86 -73 19 -89 31 -75 57 13 24 100 27 119 4 17 -21 36 -19 60 7 32 34
25 56 -22 78 -53 24 -141 26 -186 3z"/>
<path d="M4832 2310 c-65 -40 -77 -132 -24 -185 15 -15 56 -35 101 -48 78 -24
96 -42 71 -72 -18 -21 -84 -18 -127 5 -49 26 -59 25 -79 -5 -15 -23 -15 -27 0
-50 10 -15 35 -30 68 -40 140 -41 238 8 238 120 0 69 -25 94 -125 125 -79 25
-101 40 -92 64 10 26 62 29 113 7 25 -12 50 -21 53 -21 7 0 41 64 41 76 0 3
-19 14 -42 24 -59 27 -152 27 -196 0z"/>
<path d="M5778 2314 c-59 -32 -80 -143 -35 -188 22 -22 123 -66 150 -66 18 0
37 -21 37 -42 0 -44 -82 -45 -145 -2 l-34 23 -21 -26 c-11 -14 -20 -31 -20
-38 0 -33 93 -75 164 -75 63 1 124 33 141 74 38 90 2 151 -105 181 -84 24
-100 33 -100 54 0 44 33 48 113 14 37 -16 38 -16 64 9 33 34 24 61 -28 82 -49
20 -145 20 -181 0z"/>
<path d="M6157 2323 l-88 -4 3 -37 3 -37 63 -3 62 -3 0 -164 0 -165 50 0 50 0
0 165 0 165 60 0 60 0 0 40 c0 37 -2 40 -29 40 -15 0 -55 2 -87 4 -32 1 -99 1
-147 -1z"/>
<path d="M7406 2318 c-3 -7 -7 -102 -11 -210 l-7 -196 24 -4 c13 -2 35 -1 51
1 l27 3 -2 207 -3 206 -38 3 c-24 2 -39 -1 -41 -10z"/>
<path d="M7693 2305 c-220 -110 -119 -431 127 -402 94 11 161 67 187 156 53
185 -137 334 -314 246z m168 -82 c39 -23 63 -76 56 -125 -7 -51 -28 -81 -71
-102 -98 -46 -201 52 -166 158 25 76 112 109 181 69z"/>
<path d="M2440 2115 l0 -205 155 0 155 0 0 40 0 40 -110 0 -110 0 0 45 0 45
95 0 95 0 0 40 0 40 -95 0 -95 0 0 34 c0 43 8 46 131 46 l99 0 0 40 0 40 -160
0 -160 0 0 -205z"/>
<path d="M2830 2115 l0 -205 150 0 150 0 0 40 0 39 -97 3 -98 3 -3 163 -2 162
-50 0 -50 0 0 -205z"/>
<path d="M3190 2115 l0 -206 148 3 147 3 3 37 3 37 -98 3 -98 3 -3 163 -2 162
-50 0 -50 0 0 -205z"/>
<path d="M6480 2177 c0 -128 2 -147 23 -187 30 -60 62 -81 133 -87 77 -6 129
13 169 61 l30 38 3 159 3 159 -45 0 -46 0 0 -139 c0 -125 -2 -141 -21 -165
-16 -20 -29 -26 -60 -26 -84 0 -99 32 -99 213 l0 117 -45 0 -45 0 0 -143z"/>
<path d="M6940 2115 l0 -205 111 0 c121 0 156 10 205 58 95 95 81 245 -30 320
-48 32 -50 32 -167 32 l-119 0 0 -205z m197 114 c66 -25 96 -85 74 -152 -19
-57 -51 -79 -118 -81 l-58 -1 -3 109 c-1 61 0 116 2 123 6 16 64 17 103 2z"/>
</g>
</svg>
